<svg xmlns="http://www.w3.org/2000/svg" viewBox="0 0 64 64"><path fill="#000000" fill-rule="evenodd" d="M27.28,11.54 L27.96,3.28 A29.0,29.0 0 0 1 36.04,3.28 L36.72,11.54 A21.0,21.0 0 0 1 43.13,14.19 L49.45,8.84 A29.0,29.0 0 0 1 55.16,14.55 L49.81,20.87 A21.0,21.0 0 0 1 52.46,27.28 L60.72,27.96 A29.0,29.0 0 0 1 60.72,36.04 L52.46,36.72 A21.0,21.0 0 0 1 49.81,43.13 L55.16,49.45 A29.0,29.0 0 0 1 49.45,55.16 L43.13,49.81 A21.0,21.0 0 0 1 36.72,52.46 L36.04,60.72 A29.0,29.0 0 0 1 27.96,60.72 L27.28,52.46 A21.0,21.0 0 0 1 20.87,49.81 L14.55,55.16 A29.0,29.0 0 0 1 8.84,49.45 L14.19,43.13 A21.0,21.0 0 0 1 11.54,36.72 L3.28,36.04 A29.0,29.0 0 0 1 3.28,27.96 L11.54,27.28 A21.0,21.0 0 0 1 14.19,20.87 L8.84,14.55 A29.0,29.0 0 0 1 14.55,8.84 L20.87,14.19 A21.0,21.0 0 0 1 27.28,11.54 Z M32.0,20.5 L41.96,26.25 L41.96,37.75 L32.0,43.5 L22.04,37.75 L22.04,26.25 Z"/></svg>
